mtllib Poker_Chip.mtl
usemtl phong1SG
# Blender v2.78 (sub 0) OBJ File: 'Poker_Chip.blend'
# www.blender.org
o Cylinder.001_Cylinder.000
v 0.000000 0.002643 0.025315
v 0.000000 -0.002643 0.025315
v 0.002206 -0.002643 0.025218
v 0.002206 0.002643 0.025218
v 0.004396 -0.002643 0.024930
v 0.004396 0.002643 0.024930
v 0.006552 -0.002643 0.024452
v 0.006552 0.002643 0.024452
v 0.008658 -0.002643 0.023788
v 0.008658 0.002643 0.023788
v 0.010699 -0.002643 0.022943
v 0.010699 0.002643 0.022943
v 0.012657 -0.002643 0.021923
v 0.012657 0.002643 0.021923
v 0.014520 -0.002643 0.020737
v 0.014520 0.002643 0.020737
v 0.016272 -0.002643 0.019392
v 0.016272 0.002643 0.019392
v 0.017900 -0.002643 0.017900
v 0.017900 0.002643 0.017900
v 0.019392 -0.002643 0.016272
v 0.019392 0.002643 0.016272
v 0.020737 -0.002643 0.014520
v 0.020737 0.002643 0.014520
v 0.021923 -0.002643 0.012657
v 0.021923 0.002643 0.012657
v 0.022943 -0.002643 0.010698
v 0.022943 0.002643 0.010698
v 0.023788 -0.002643 0.008658
v 0.023788 0.002643 0.008658
v 0.024452 -0.002643 0.006552
v 0.024452 0.002643 0.006552
v 0.024930 -0.002643 0.004396
v 0.024930 0.002643 0.004396
v 0.025218 -0.002643 0.002206
v 0.025218 0.002643 0.002206
v 0.025315 -0.002643 -0.000000
v 0.025315 0.002643 0.000000
v -0.025315 0.002643 0.000000
v -0.025315 -0.002643 -0.000000
v -0.025218 -0.002643 0.002206
v -0.025218 0.002643 0.002206
v -0.024930 -0.002643 0.004396
v -0.024930 0.002643 0.004396
v -0.024452 -0.002643 0.006552
v -0.024452 0.002643 0.006552
v -0.023788 -0.002643 0.008658
v -0.023788 0.002643 0.008658
v -0.022943 -0.002643 0.010699
v -0.022943 0.002643 0.010699
v -0.021923 -0.002643 0.012657
v -0.021923 0.002643 0.012657
v -0.020737 -0.002643 0.014520
v -0.020737 0.002643 0.014520
v -0.019392 -0.002643 0.016272
v -0.019392 0.002643 0.016272
v -0.017900 -0.002643 0.017900
v -0.017900 0.002643 0.017900
v -0.016272 -0.002643 0.019392
v -0.016272 0.002643 0.019392
v -0.014520 -0.002643 0.020737
v -0.014520 0.002643 0.020737
v -0.012657 -0.002643 0.021923
v -0.012657 0.002643 0.021923
v -0.010698 -0.002643 0.022943
v -0.010698 0.002643 0.022943
v -0.008658 -0.002643 0.023788
v -0.008658 0.002643 0.023788
v -0.006552 -0.002643 0.024452
v -0.006552 0.002643 0.024452
v -0.004396 -0.002643 0.024930
v -0.004396 0.002643 0.024930
v -0.002206 -0.002643 0.025218
v -0.002206 0.002643 0.025218
v 0.025218 -0.002643 -0.002206
v 0.025218 0.002643 -0.002206
v 0.024930 -0.002643 -0.004396
v 0.024930 0.002643 -0.004396
v 0.024452 -0.002643 -0.006552
v 0.024452 0.002643 -0.006552
v 0.023788 -0.002643 -0.008658
v 0.023788 0.002643 -0.008658
v 0.022943 -0.002643 -0.010699
v 0.022943 0.002643 -0.010699
v 0.021923 -0.002643 -0.012657
v 0.021923 0.002643 -0.012657
v 0.020737 -0.002643 -0.014520
v 0.020737 0.002643 -0.014520
v 0.019392 -0.002643 -0.016272
v 0.019392 0.002643 -0.016272
v 0.017900 -0.002643 -0.017900
v 0.017900 0.002643 -0.017900
v 0.016272 -0.002643 -0.019392
v 0.016272 0.002643 -0.019392
v 0.014520 -0.002643 -0.020737
v 0.014520 0.002643 -0.020737
v 0.012657 -0.002643 -0.021923
v 0.012657 0.002643 -0.021923
v 0.010698 -0.002643 -0.022943
v 0.010698 0.002643 -0.022943
v 0.008658 -0.002643 -0.023788
v 0.008658 0.002643 -0.023788
v 0.006552 -0.002643 -0.024452
v 0.006552 0.002643 -0.024452
v 0.004396 -0.002643 -0.024930
v 0.004396 0.002643 -0.024930
v 0.002206 -0.002643 -0.025218
v 0.002206 0.002643 -0.025218
v 0.000000 -0.002643 -0.025315
v 0.000000 0.002643 -0.025315
v -0.002206 -0.002643 -0.025218
v -0.002206 0.002643 -0.025218
v -0.004396 -0.002643 -0.024930
v -0.004396 0.002643 -0.024930
v -0.006552 -0.002643 -0.024452
v -0.006552 0.002643 -0.024452
v -0.008658 -0.002643 -0.023788
v -0.008658 0.002643 -0.023788
v -0.010699 -0.002643 -0.022943
v -0.010699 0.002643 -0.022943
v -0.012657 -0.002643 -0.021923
v -0.012657 0.002643 -0.021923
v -0.014520 -0.002643 -0.020737
v -0.014520 0.002643 -0.020737
v -0.016272 -0.002643 -0.019392
v -0.016272 0.002643 -0.019392
v -0.017900 -0.002643 -0.017900
v -0.017900 0.002643 -0.017900
v -0.019392 -0.002643 -0.016272
v -0.019392 0.002643 -0.016272
v -0.020737 -0.002643 -0.014520
v -0.020737 0.002643 -0.014520
v -0.021923 -0.002643 -0.012657
v -0.021923 0.002643 -0.012657
v -0.022943 -0.002643 -0.010698
v -0.022943 0.002643 -0.010698
v -0.023788 -0.002643 -0.008658
v -0.023788 0.002643 -0.008658
v -0.024452 -0.002643 -0.006552
v -0.024452 0.002643 -0.006552
v -0.024930 -0.002643 -0.004396
v -0.024930 0.002643 -0.004396
v -0.025218 -0.002643 -0.002206
v -0.025218 0.002643 -0.002206
vt 0.4974 0.9194
vt 0.5243 0.9836
vt 0.4974 0.9836
vt 0.5511 0.9194
vt 0.5511 0.9836
vt 0.5779 0.9836
vt 0.5779 0.9194
vt 0.6048 0.9836
vt 0.6316 0.9194
vt 0.6316 0.9836
vt 0.6584 0.9194
vt 0.6584 0.9836
vt 0.6853 0.9836
vt 0.7121 0.9194
vt 0.7121 0.9836
vt 0.7389 0.9194
vt 0.7389 0.9836
vt 0.7658 0.9194
vt 0.7658 0.9836
vt 0.7926 0.9194
vt 0.7926 0.9836
vt 0.8194 0.9194
vt 0.8194 0.9836
vt 0.8463 0.9194
vt 0.8463 0.9836
vt 0.8731 0.9194
vt 0.8731 0.9836
vt 0.8999 0.9836
vt 0.8999 0.9194
vt 0.9268 0.9836
vt 0.9536 0.9194
vt 0.9536 0.9836
vt 0.9804 0.9836
vt 0.0144 0.9194
vt 0.0413 0.9836
vt 0.0144 0.9836
vt 0.0413 0.9194
vt 0.0681 0.9836
vt 0.0681 0.9194
vt 0.0949 0.9836
vt 0.0949 0.9194
vt 0.1218 0.9836
vt 0.1218 0.9194
vt 0.1486 0.9836
vt 0.1486 0.9194
vt 0.1754 0.9836
vt 0.1754 0.9194
vt 0.2023 0.9836
vt 0.2023 0.9194
vt 0.2291 0.9836
vt 0.2291 0.9194
vt 0.2559 0.9836
vt 0.2559 0.9194
vt 0.2828 0.9836
vt 0.2828 0.9194
vt 0.3096 0.9836
vt 0.3096 0.9194
vt 0.3364 0.9836
vt 0.3364 0.9194
vt 0.3633 0.9836
vt 0.3633 0.9194
vt 0.3901 0.9836
vt 0.3901 0.9194
vt 0.4169 0.9836
vt 0.4169 0.9194
vt 0.4438 0.9836
vt 0.4438 0.9194
vt 0.4706 0.9836
vt 0.4706 0.9194
vt 0.5243 0.9194
vt 0.6048 0.9194
vt 0.6853 0.9194
vt 0.9268 0.9194
vt 0.9804 0.9194
vt 0.9820 0.8974
vt 0.9552 0.8332
vt 0.9820 0.8332
vt 0.9283 0.8974
vt 0.9283 0.8332
vt 0.9015 0.8332
vt 0.9015 0.8974
vt 0.8747 0.8332
vt 0.8478 0.8974
vt 0.8478 0.8332
vt 0.8210 0.8974
vt 0.8210 0.8332
vt 0.7942 0.8974
vt 0.7942 0.8332
vt 0.7673 0.8974
vt 0.7673 0.8332
vt 0.7405 0.8974
vt 0.7405 0.8332
vt 0.7137 0.8974
vt 0.7137 0.8332
vt 0.6868 0.8974
vt 0.6868 0.8332
vt 0.6600 0.8332
vt 0.6332 0.8974
vt 0.6332 0.8332
vt 0.6063 0.8332
vt 0.6063 0.8974
vt 0.5795 0.8332
vt 0.5795 0.8974
vt 0.5527 0.8332
vt 0.5258 0.8974
vt 0.5258 0.8332
vt 0.4990 0.8332
vt 0.4990 0.8974
vt 0.4722 0.8332
vt 0.4722 0.8974
vt 0.4453 0.8332
vt 0.4453 0.8974
vt 0.4185 0.8332
vt 0.4185 0.8974
vt 0.3917 0.8332
vt 0.3917 0.8974
vt 0.3648 0.8332
vt 0.3648 0.8974
vt 0.3380 0.8332
vt 0.3380 0.8974
vt 0.3112 0.8332
vt 0.3112 0.8974
vt 0.2843 0.8332
vt 0.2843 0.8974
vt 0.2575 0.8332
vt 0.2575 0.8974
vt 0.2307 0.8332
vt 0.2307 0.8974
vt 0.2038 0.8332
vt 0.2038 0.8974
vt 0.1770 0.8332
vt 0.1770 0.8974
vt 0.1502 0.8332
vt 0.1502 0.8974
vt 0.1233 0.8332
vt 0.1233 0.8974
vt 0.0965 0.8332
vt 0.0965 0.8974
vt 0.0697 0.8332
vt 0.0697 0.8974
vt 0.0428 0.8332
vt 0.0428 0.8974
vt 0.0160 0.8332
vt 0.9552 0.8974
vt 0.8747 0.8974
vt 0.6600 0.8974
vt 0.5527 0.8974
vt 0.0160 0.8974
vt 0.4578 0.0261
vt 0.4246 0.7870
vt 0.2015 0.6449
vt 0.1220 0.3926
vt 0.1249 0.3590
vt 0.1511 0.2615
vt 0.1308 0.3258
vt 0.1395 0.2932
vt 0.1653 0.2309
vt 0.1822 0.2017
vt 0.2015 0.1741
vt 0.2232 0.1482
vt 0.2471 0.1244
vt 0.3298 0.0665
vt 0.2729 0.1027
vt 0.3005 0.0833
vt 0.3603 0.0522
vt 0.3920 0.0407
vt 0.4246 0.0319
vt 0.4915 0.0231
vt 0.5252 0.0231
vt 0.5588 0.0261
vt 0.5920 0.0319
vt 0.6246 0.0407
vt 0.6563 0.0522
vt 0.6869 0.0665
vt 0.7161 0.0833
vt 0.7437 0.1027
vt 0.7696 0.1244
vt 0.7935 0.1482
vt 0.8151 0.1741
vt 0.8345 0.2017
vt 0.8772 0.2932
vt 0.8514 0.2309
vt 0.8656 0.2615
vt 0.8859 0.3258
vt 0.8917 0.3590
vt 0.8947 0.3926
vt 0.8947 0.4263
vt 0.8917 0.4600
vt 0.8656 0.5575
vt 0.8859 0.4932
vt 0.8772 0.5258
vt 0.8514 0.5881
vt 0.8345 0.6173
vt 0.8151 0.6449
vt 0.7934 0.6707
vt 0.7696 0.6946
vt 0.7438 0.7163
vt 0.7161 0.7356
vt 0.6869 0.7525
vt 0.6563 0.7668
vt 0.5588 0.7929
vt 0.6246 0.7783
vt 0.5920 0.7870
vt 0.5252 0.7958
vt 0.4915 0.7958
vt 0.4579 0.7929
vt 0.3920 0.7783
vt 0.3603 0.7668
vt 0.3298 0.7525
vt 0.3006 0.7356
vt 0.2729 0.7163
vt 0.2471 0.6946
vt 0.2232 0.6707
vt 0.1822 0.6173
vt 0.1395 0.5258
vt 0.1653 0.5880
vt 0.1511 0.5575
vt 0.1308 0.4932
vt 0.1249 0.4600
vt 0.1220 0.4263
vt 0.4578 0.0261
vt 0.4246 0.7870
vt 0.2015 0.6449
vt 0.1220 0.3926
vt 0.1249 0.3590
vt 0.1511 0.2615
vt 0.1308 0.3258
vt 0.1395 0.2932
vt 0.1653 0.2309
vt 0.1822 0.2017
vt 0.2015 0.1741
vt 0.2232 0.1482
vt 0.2471 0.1244
vt 0.3298 0.0665
vt 0.2729 0.1027
vt 0.3005 0.0833
vt 0.3603 0.0522
vt 0.3920 0.0407
vt 0.4246 0.0319
vt 0.4915 0.0231
vt 0.5252 0.0231
vt 0.5588 0.0261
vt 0.5920 0.0319
vt 0.6246 0.0407
vt 0.6563 0.0522
vt 0.6869 0.0665
vt 0.7161 0.0833
vt 0.7437 0.1027
vt 0.7696 0.1244
vt 0.7934 0.1482
vt 0.8151 0.1741
vt 0.8345 0.2017
vt 0.8772 0.2932
vt 0.8514 0.2309
vt 0.8656 0.2615
vt 0.8859 0.3258
vt 0.8917 0.3590
vt 0.8947 0.3926
vt 0.8947 0.4264
vt 0.8917 0.4600
vt 0.8656 0.5575
vt 0.8859 0.4932
vt 0.8772 0.5258
vt 0.8514 0.5880
vt 0.8345 0.6173
vt 0.8151 0.6449
vt 0.7935 0.6707
vt 0.7696 0.6946
vt 0.7438 0.7163
vt 0.7161 0.7356
vt 0.6869 0.7525
vt 0.6563 0.7668
vt 0.5588 0.7929
vt 0.6246 0.7783
vt 0.5920 0.7870
vt 0.5252 0.7958
vt 0.4915 0.7958
vt 0.4579 0.7929
vt 0.3921 0.7783
vt 0.3603 0.7668
vt 0.3298 0.7525
vt 0.3006 0.7356
vt 0.2729 0.7163
vt 0.2471 0.6946
vt 0.2232 0.6707
vt 0.1822 0.6173
vt 0.1395 0.5258
vt 0.1653 0.5880
vt 0.1511 0.5575
vt 0.1308 0.4932
vt 0.1249 0.4600
vt 0.1220 0.4263
vn 0.0000 0.0000 1.0000
vn 0.0872 0.0000 0.9962
vn 0.1736 0.0000 0.9848
vn 0.2588 0.0000 0.9659
vn 0.3419 0.0000 0.9397
vn 0.4227 0.0000 0.9063
vn 0.5000 0.0000 0.8660
vn 0.5735 0.0000 0.8192
vn 0.6429 0.0000 0.7659
vn 0.7071 0.0000 0.7071
vn 0.7659 0.0000 0.6429
vn 0.8192 0.0000 0.5735
vn 0.8661 0.0000 0.4999
vn 0.9063 0.0000 0.4227
vn 0.9397 -0.0000 0.3420
vn 0.9659 -0.0000 0.2588
vn 0.9848 -0.0000 0.1736
vn 0.9962 -0.0000 0.0872
vn 0.9991 -0.0000 0.0434
vn -0.9991 -0.0000 0.0434
vn -0.9962 0.0000 0.0872
vn -0.9848 0.0000 0.1736
vn -0.9659 0.0000 0.2588
vn -0.9397 0.0000 0.3419
vn -0.9063 0.0000 0.4227
vn -0.8660 0.0000 0.5000
vn -0.8192 0.0000 0.5735
vn -0.7659 0.0000 0.6429
vn -0.7071 0.0000 0.7071
vn -0.6429 0.0000 0.7659
vn -0.5735 0.0000 0.8192
vn -0.4999 0.0000 0.8661
vn -0.4227 0.0000 0.9063
vn -0.3420 0.0000 0.9397
vn -0.2588 0.0000 0.9659
vn -0.1736 0.0000 0.9848
vn -0.0872 0.0000 0.9962
vn 0.9991 -0.0000 -0.0434
vn 0.9962 0.0000 -0.0872
vn 0.9848 -0.0000 -0.1736
vn 0.9659 -0.0000 -0.2588
vn 0.9397 0.0000 -0.3419
vn 0.9063 0.0000 -0.4227
vn 0.8660 0.0000 -0.5000
vn 0.8192 0.0000 -0.5735
vn 0.7659 0.0000 -0.6429
vn 0.7071 0.0000 -0.7071
vn 0.6429 0.0000 -0.7659
vn 0.5735 0.0000 -0.8192
vn 0.4999 0.0000 -0.8661
vn 0.4227 0.0000 -0.9063
vn 0.3420 0.0000 -0.9397
vn 0.2588 0.0000 -0.9659
vn 0.1736 0.0000 -0.9848
vn 0.0872 0.0000 -0.9962
vn 0.0000 0.0000 -1.0000
vn -0.0872 0.0000 -0.9962
vn -0.1736 0.0000 -0.9848
vn -0.2588 0.0000 -0.9659
vn -0.3419 0.0000 -0.9397
vn -0.4227 0.0000 -0.9063
vn -0.5000 0.0000 -0.8660
vn -0.5735 0.0000 -0.8192
vn -0.6429 0.0000 -0.7659
vn -0.7071 0.0000 -0.7071
vn -0.7659 0.0000 -0.6429
vn -0.8192 0.0000 -0.5735
vn -0.8661 0.0000 -0.4999
vn -0.9063 0.0000 -0.4227
vn -0.9397 0.0000 -0.3420
vn -0.9659 0.0000 -0.2588
vn -0.9848 0.0000 -0.1736
vn -0.9962 0.0000 -0.0872
vn -0.9991 0.0000 -0.0434
vn 0.0000 1.0000 0.0000
vn 0.0000 -1.0000 -0.0000
s 1
f 2/1/1 4/2/2 1/3/1
f 4/2/2 5/4/3 6/5/3
f 5/4/3 8/6/4 6/5/3
f 7/7/4 10/8/5 8/6/4
f 10/8/5 11/9/6 12/10/6
f 12/10/6 13/11/7 14/12/7
f 13/11/7 16/13/8 14/12/7
f 16/13/8 17/14/9 18/15/9
f 18/15/9 19/16/10 20/17/10
f 20/17/10 21/18/11 22/19/11
f 22/19/11 23/20/12 24/21/12
f 24/21/12 25/22/13 26/23/13
f 26/23/13 27/24/14 28/25/14
f 28/25/14 29/26/15 30/27/15
f 29/26/15 32/28/16 30/27/15
f 31/29/16 34/30/17 32/28/16
f 34/30/17 35/31/18 36/32/18
f 35/31/18 38/33/19 36/32/18
f 40/34/20 42/35/21 39/36/20
f 41/37/21 44/38/22 42/35/21
f 43/39/22 46/40/23 44/38/22
f 45/41/23 48/42/24 46/40/23
f 47/43/24 50/44/25 48/42/24
f 49/45/25 52/46/26 50/44/25
f 51/47/26 54/48/27 52/46/26
f 53/49/27 56/50/28 54/48/27
f 55/51/28 58/52/29 56/50/28
f 57/53/29 60/54/30 58/52/29
f 59/55/30 62/56/31 60/54/30
f 61/57/31 64/58/32 62/56/31
f 63/59/32 66/60/33 64/58/32
f 65/61/33 68/62/34 66/60/33
f 67/63/34 70/64/35 68/62/34
f 69/65/35 72/66/36 70/64/35
f 71/67/36 74/68/37 72/66/36
f 73/69/37 1/3/1 74/68/37
f 2/1/1 3/70/2 4/2/2
f 4/2/2 3/70/2 5/4/3
f 5/4/3 7/7/4 8/6/4
f 7/7/4 9/71/5 10/8/5
f 10/8/5 9/71/5 11/9/6
f 12/10/6 11/9/6 13/11/7
f 13/11/7 15/72/8 16/13/8
f 16/13/8 15/72/8 17/14/9
f 18/15/9 17/14/9 19/16/10
f 20/17/10 19/16/10 21/18/11
f 22/19/11 21/18/11 23/20/12
f 24/21/12 23/20/12 25/22/13
f 26/23/13 25/22/13 27/24/14
f 28/25/14 27/24/14 29/26/15
f 29/26/15 31/29/16 32/28/16
f 31/29/16 33/73/17 34/30/17
f 34/30/17 33/73/17 35/31/18
f 35/31/18 37/74/19 38/33/19
f 40/34/20 41/37/21 42/35/21
f 41/37/21 43/39/22 44/38/22
f 43/39/22 45/41/23 46/40/23
f 45/41/23 47/43/24 48/42/24
f 47/43/24 49/45/25 50/44/25
f 49/45/25 51/47/26 52/46/26
f 51/47/26 53/49/27 54/48/27
f 53/49/27 55/51/28 56/50/28
f 55/51/28 57/53/29 58/52/29
f 57/53/29 59/55/30 60/54/30
f 59/55/30 61/57/31 62/56/31
f 61/57/31 63/59/32 64/58/32
f 63/59/32 65/61/33 66/60/33
f 65/61/33 67/63/34 68/62/34
f 67/63/34 69/65/35 70/64/35
f 69/65/35 71/67/36 72/66/36
f 71/67/36 73/69/37 74/68/37
f 73/69/37 2/1/1 1/3/1
s 2
f 37/75/38 76/76/39 38/77/38
f 76/76/39 77/78/40 78/79/40
f 77/78/40 80/80/41 78/79/40
f 79/81/41 82/82/42 80/80/41
f 82/82/42 83/83/43 84/84/43
f 84/84/43 85/85/44 86/86/44
f 86/86/44 87/87/45 88/88/45
f 88/88/45 89/89/46 90/90/46
f 90/90/46 91/91/47 92/92/47
f 92/92/47 93/93/48 94/94/48
f 94/94/48 95/95/49 96/96/49
f 95/95/49 98/97/50 96/96/49
f 98/97/50 99/98/51 100/99/51
f 99/98/51 102/100/52 100/99/51
f 101/101/52 104/102/53 102/100/52
f 103/103/53 106/104/54 104/102/53
f 106/104/54 107/105/55 108/106/55
f 107/105/55 110/107/56 108/106/55
f 109/108/56 112/109/57 110/107/56
f 111/110/57 114/111/58 112/109/57
f 113/112/58 116/113/59 114/111/58
f 115/114/59 118/115/60 116/113/59
f 117/116/60 120/117/61 118/115/60
f 119/118/61 122/119/62 120/117/61
f 121/120/62 124/121/63 122/119/62
f 123/122/63 126/123/64 124/121/63
f 125/124/64 128/125/65 126/123/64
f 127/126/65 130/127/66 128/125/65
f 129/128/66 132/129/67 130/127/66
f 131/130/67 134/131/68 132/129/67
f 133/132/68 136/133/69 134/131/68
f 135/134/69 138/135/70 136/133/69
f 137/136/70 140/137/71 138/135/70
f 139/138/71 142/139/72 140/137/71
f 141/140/72 144/141/73 142/139/72
f 143/142/73 39/143/74 144/141/73
f 37/75/38 75/144/39 76/76/39
f 76/76/39 75/144/39 77/78/40
f 77/78/40 79/81/41 80/80/41
f 79/81/41 81/145/42 82/82/42
f 82/82/42 81/145/42 83/83/43
f 84/84/43 83/83/43 85/85/44
f 86/86/44 85/85/44 87/87/45
f 88/88/45 87/87/45 89/89/46
f 90/90/46 89/89/46 91/91/47
f 92/92/47 91/91/47 93/93/48
f 94/94/48 93/93/48 95/95/49
f 95/95/49 97/146/50 98/97/50
f 98/97/50 97/146/50 99/98/51
f 99/98/51 101/101/52 102/100/52
f 101/101/52 103/103/53 104/102/53
f 103/103/53 105/147/54 106/104/54
f 106/104/54 105/147/54 107/105/55
f 107/105/55 109/108/56 110/107/56
f 109/108/56 111/110/57 112/109/57
f 111/110/57 113/112/58 114/111/58
f 113/112/58 115/114/59 116/113/59
f 115/114/59 117/116/60 118/115/60
f 117/116/60 119/118/61 120/117/61
f 119/118/61 121/120/62 122/119/62
f 121/120/62 123/122/63 124/121/63
f 123/122/63 125/124/64 126/123/64
f 125/124/64 127/126/65 128/125/65
f 127/126/65 129/128/66 130/127/66
f 129/128/66 131/130/67 132/129/67
f 131/130/67 133/132/68 134/131/68
f 133/132/68 135/134/69 136/133/69
f 135/134/69 137/136/70 138/135/70
f 137/136/70 139/138/71 140/137/71
f 139/138/71 141/140/72 142/139/72
f 141/140/72 143/142/73 144/141/73
f 143/142/73 40/148/74 39/143/74
s 3
f 86/149/75 60/150/75 1/151/75
f 18/152/75 20/153/75 26/154/75
f 22/155/75 24/156/75 26/154/75
f 26/154/75 28/157/75 30/158/75
f 30/158/75 32/159/75 26/154/75
f 34/160/75 36/161/75 78/162/75
f 38/163/75 76/164/75 78/162/75
f 78/162/75 80/165/75 86/149/75
f 82/166/75 84/167/75 86/149/75
f 86/149/75 88/168/75 90/169/75
f 90/169/75 92/170/75 86/149/75
f 94/171/75 96/172/75 98/173/75
f 98/173/75 100/174/75 102/175/75
f 102/175/75 104/176/75 106/177/75
f 106/177/75 108/178/75 102/175/75
f 110/179/75 112/180/75 118/181/75
f 114/182/75 116/183/75 118/181/75
f 118/181/75 120/184/75 122/185/75
f 122/185/75 124/186/75 126/187/75
f 126/187/75 128/188/75 134/189/75
f 130/190/75 132/191/75 134/189/75
f 134/189/75 136/192/75 138/193/75
f 138/193/75 140/194/75 134/189/75
f 142/195/75 144/196/75 39/197/75
f 39/197/75 42/198/75 142/195/75
f 44/199/75 46/200/75 52/201/75
f 48/202/75 50/203/75 52/201/75
f 52/201/75 54/204/75 56/205/75
f 56/205/75 58/206/75 52/201/75
f 60/150/75 62/207/75 64/208/75
f 64/208/75 66/209/75 68/210/75
f 68/210/75 70/211/75 72/212/75
f 72/212/75 74/213/75 68/210/75
f 1/151/75 4/214/75 10/215/75
f 6/216/75 8/217/75 10/215/75
f 10/215/75 12/218/75 14/219/75
f 14/219/75 16/220/75 18/152/75
f 20/153/75 22/155/75 26/154/75
f 26/154/75 32/159/75 34/160/75
f 36/161/75 38/163/75 78/162/75
f 80/165/75 82/166/75 86/149/75
f 86/149/75 92/170/75 94/171/75
f 94/171/75 98/173/75 86/149/75
f 102/175/75 108/178/75 110/179/75
f 112/180/75 114/182/75 118/181/75
f 118/181/75 122/185/75 134/189/75
f 128/188/75 130/190/75 134/189/75
f 134/189/75 140/194/75 142/195/75
f 142/195/75 42/198/75 44/199/75
f 46/200/75 48/202/75 52/201/75
f 52/201/75 58/206/75 60/150/75
f 60/150/75 64/208/75 1/151/75
f 68/210/75 74/213/75 1/151/75
f 4/214/75 6/216/75 10/215/75
f 10/215/75 14/219/75 18/152/75
f 18/152/75 26/154/75 86/149/75
f 34/160/75 78/162/75 86/149/75
f 86/149/75 98/173/75 102/175/75
f 102/175/75 110/179/75 118/181/75
f 122/185/75 126/187/75 134/189/75
f 134/189/75 142/195/75 44/199/75
f 44/199/75 52/201/75 60/150/75
f 64/208/75 68/210/75 1/151/75
f 1/151/75 10/215/75 86/149/75
f 26/154/75 34/160/75 86/149/75
f 86/149/75 102/175/75 118/181/75
f 118/181/75 134/189/75 86/149/75
f 44/199/75 60/150/75 86/149/75
f 10/215/75 18/152/75 86/149/75
f 86/149/75 134/189/75 44/199/75
s 4
f 97/221/76 55/222/76 40/223/76
f 129/224/76 127/225/76 121/226/76
f 125/227/76 123/228/76 121/226/76
f 121/226/76 119/229/76 117/230/76
f 117/230/76 115/231/76 121/226/76
f 113/232/76 111/233/76 105/234/76
f 109/235/76 107/236/76 105/234/76
f 105/234/76 103/237/76 97/221/76
f 101/238/76 99/239/76 97/221/76
f 97/221/76 95/240/76 93/241/76
f 93/241/76 91/242/76 97/221/76
f 89/243/76 87/244/76 85/245/76
f 85/245/76 83/246/76 81/247/76
f 81/247/76 79/248/76 77/249/76
f 77/249/76 75/250/76 81/247/76
f 37/251/76 35/252/76 29/253/76
f 33/254/76 31/255/76 29/253/76
f 29/253/76 27/256/76 25/257/76
f 25/257/76 23/258/76 21/259/76
f 21/259/76 19/260/76 13/261/76
f 17/262/76 15/263/76 13/261/76
f 13/261/76 11/264/76 9/265/76
f 9/265/76 7/266/76 13/261/76
f 5/267/76 3/268/76 2/269/76
f 2/269/76 73/270/76 5/267/76
f 71/271/76 69/272/76 63/273/76
f 67/274/76 65/275/76 63/273/76
f 63/273/76 61/276/76 59/277/76
f 59/277/76 57/278/76 63/273/76
f 55/222/76 53/279/76 51/280/76
f 51/280/76 49/281/76 47/282/76
f 47/282/76 45/283/76 43/284/76
f 43/284/76 41/285/76 47/282/76
f 40/223/76 143/286/76 137/287/76
f 141/288/76 139/289/76 137/287/76
f 137/287/76 135/290/76 133/291/76
f 133/291/76 131/292/76 129/224/76
f 127/225/76 125/227/76 121/226/76
f 121/226/76 115/231/76 113/232/76
f 111/233/76 109/235/76 105/234/76
f 103/237/76 101/238/76 97/221/76
f 97/221/76 91/242/76 89/243/76
f 89/243/76 85/245/76 97/221/76
f 81/247/76 75/250/76 37/251/76
f 35/252/76 33/254/76 29/253/76
f 29/253/76 25/257/76 13/261/76
f 19/260/76 17/262/76 13/261/76
f 13/261/76 7/266/76 5/267/76
f 5/267/76 73/270/76 71/271/76
f 69/272/76 67/274/76 63/273/76
f 63/273/76 57/278/76 55/222/76
f 55/222/76 51/280/76 40/223/76
f 47/282/76 41/285/76 40/223/76
f 143/286/76 141/288/76 137/287/76
f 137/287/76 133/291/76 129/224/76
f 129/224/76 121/226/76 97/221/76
f 113/232/76 105/234/76 97/221/76
f 97/221/76 85/245/76 81/247/76
f 81/247/76 37/251/76 29/253/76
f 25/257/76 21/259/76 13/261/76
f 13/261/76 5/267/76 71/271/76
f 71/271/76 63/273/76 55/222/76
f 51/280/76 47/282/76 40/223/76
f 40/223/76 137/287/76 97/221/76
f 121/226/76 113/232/76 97/221/76
f 97/221/76 81/247/76 29/253/76
f 29/253/76 13/261/76 97/221/76
f 71/271/76 55/222/76 97/221/76
f 137/287/76 129/224/76 97/221/76
f 97/221/76 13/261/76 71/271/76
